<svg width="81" height="80" viewBox="0 0 81 80" fill="none" xmlns="http://www.w3.org/2000/svg">
<g clip-path="url(#clip0)">
<path d="M75.9309 0H3.99636C1.78923 0 0 1.78923 0 3.99636V75.9309C0 78.138 1.78923 79.9273 3.99636 79.9273H75.9309C78.138 79.9273 79.9273 78.138 79.9273 75.9309V3.99636C79.9273 1.78923 78.138 0 75.9309 0Z" fill="#2AC7E3"/>
<path d="M79.1521 1.62451C79.2696 1.77877 80.2775 1.68686 79.9618 7.67181L79.9865 76.1615C79.9865 77.179 79.5823 78.1548 78.8629 78.8743C78.1434 79.5938 77.1675 79.998 76.15 79.998L7.3974 79.9181C1.43803 80.2514 1.50117 78.9869 1.39087 78.8366L79.1521 1.62451Z" fill="#5667F9"/>
<path d="M42.0866 59.546C41.5958 59.1072 41.0803 58.6668 40.5896 58.1809C40.1971 58.5462 39.8294 58.8874 39.437 59.2287C34.5782 63.4409 29.5732 65.1953 26.6039 63.4897C23.7321 61.8575 22.8241 57.0331 23.9783 50.9667C24.1008 50.3086 24.2482 49.6508 24.4203 48.9933C23.9047 48.847 23.414 48.7007 22.9232 48.5305C16.8128 46.438 12.7885 43.0243 12.7885 39.613C12.7885 36.3248 16.545 33.1325 22.4069 31.0863C23.0695 30.8673 23.7569 30.6475 24.4682 30.4525C24.2964 29.8187 24.1733 29.2105 24.051 28.6254C22.8241 22.4598 23.6833 17.5395 26.5791 15.8834C29.5972 14.129 34.603 16.0049 39.6328 20.4153C39.927 20.683 40.2219 20.9748 40.5408 21.2673C41.0076 20.8293 41.4488 20.3881 41.9155 20.0012C46.6776 15.8834 51.4117 14.153 54.3059 15.8099C57.3239 17.5147 58.2079 22.7795 56.8579 29.2824C56.7844 29.6972 56.6861 30.0865 56.5886 30.5013C57.2016 30.6723 57.8147 30.8665 58.3798 31.0608C64.3671 33.1077 68.2444 36.2992 68.1956 39.6617C68.1956 43.0986 64.049 46.4835 57.6932 48.5784C57.3495 48.6759 57.0066 48.7974 56.6629 48.8981C56.81 49.3857 56.9083 49.8725 57.0066 50.36C58.2854 56.6743 57.3015 61.836 54.3322 63.5416C53.5425 63.98 52.6504 64.2006 51.7474 64.181C49.0219 64.1818 45.5674 62.5121 42.0866 59.546ZM46.8966 50.6046C45.4808 52.6529 43.9322 54.6063 42.2608 56.4521C42.7268 56.9156 43.1928 57.3313 43.6596 57.7189C47.7079 61.1782 51.4381 62.4698 53.1797 61.4707C53.9902 61.0079 54.6767 59.8386 54.9964 58.0602C55.351 55.6427 55.2509 53.1803 54.7015 50.7996C54.628 50.3608 54.5297 49.9204 54.4066 49.4592C51.9296 49.9982 49.421 50.3796 46.8958 50.6014L46.8966 50.6046ZM26.3337 51.3847C25.3282 56.5736 26.0636 60.4476 27.806 61.4467C28.6164 61.9095 29.964 61.9095 31.6833 61.3005C33.972 60.4107 36.0767 59.1057 37.8912 57.4512C38.2597 57.1586 38.6026 56.8173 38.971 56.4768C37.2615 54.629 35.6709 52.6746 34.209 50.6254C31.6943 50.4297 29.1949 50.0722 26.7262 49.5551C26.5791 50.1874 26.456 50.7956 26.3329 51.3807L26.3337 51.3847ZM40.6151 54.7952C41.6949 53.6011 42.7732 52.2855 43.8546 50.8236C42.7748 50.8723 41.6462 50.8963 40.5176 50.8963C39.413 50.8963 38.3335 50.8721 37.279 50.8236C38.3229 52.202 39.4361 53.5264 40.6143 54.792L40.6151 54.7952ZM35.4614 31.012C34.5295 32.3516 33.6231 33.7647 32.7623 35.2482C31.9031 36.71 31.1182 38.1967 30.406 39.6817C31.1421 41.1436 31.9246 42.6302 32.7863 44.1409C33.6455 45.6027 34.5534 47.0398 35.4854 48.4042C37.1047 48.5017 38.7984 48.5505 40.516 48.5505C42.2576 48.5505 43.9529 48.5017 45.5946 48.3802C46.4786 47.0398 47.3858 45.6027 48.245 44.1161C49.1042 42.6294 49.9131 41.1196 50.6252 39.6577C49.9139 38.2191 49.1066 36.734 48.245 35.2482C47.3834 33.7623 46.4778 32.3484 45.5706 31.012C43.9265 30.8897 42.2329 30.8162 40.516 30.8162C38.7992 30.8162 37.1055 30.8905 35.4614 31.012ZM27.364 47.3116C29.05 47.6697 30.7538 47.9384 32.4681 48.1165C31.8791 47.1901 31.2908 46.2645 30.7257 45.2902C30.1862 44.3407 29.6459 43.3896 29.1552 42.44C28.473 44.0313 27.8751 45.6574 27.364 47.3116V47.3116ZM50.3031 45.2646C49.7388 46.239 49.1745 47.1653 48.6103 48.0669C50.3502 47.8634 52.0784 47.5699 53.7879 47.1877C53.2532 45.5394 52.6305 43.9209 51.9224 42.3393C51.4098 43.3134 50.8711 44.2887 50.3063 45.2654L50.3031 45.2646ZM23.1678 33.3299C18.1628 35.0835 15.1447 37.646 15.1447 39.6394C15.1447 40.5657 15.8313 41.7351 17.2052 42.9036C19.1453 44.4155 21.3389 45.5703 23.6833 46.3141C24.1253 46.4604 24.5913 46.5826 25.0573 46.7289C25.814 44.3259 26.7241 41.9738 27.782 39.6873C26.722 37.4383 25.8199 35.1183 25.0821 32.744C24.4197 32.913 23.7816 33.1082 23.1678 33.3299ZM53.2756 39.6394C54.3637 41.8965 55.2983 44.2245 56.0731 46.6074C56.3928 46.5107 56.7125 46.4124 57.0058 46.3149C62.4776 44.5117 65.8641 41.759 65.8889 39.6146C65.8889 37.6164 62.7478 35.0348 57.6189 33.2804C57.1041 33.1101 56.5398 32.9391 55.9755 32.7688C55.2279 35.1152 54.3259 37.4096 53.2756 39.637V39.6394ZM50.2823 34.0333C50.8466 35.0076 51.3861 35.9587 51.8809 36.9106C52.561 35.3625 53.1508 33.7762 53.6473 32.1598C51.9783 31.7818 50.2913 31.4883 48.5927 31.2806C49.1777 32.1822 49.742 33.0837 50.2823 34.0333ZM27.388 32.131C27.8787 33.6896 28.4678 35.2737 29.1552 36.9059C29.6459 35.9563 30.1862 35.0052 30.7257 34.0556C31.2652 33.1061 31.8295 32.1798 32.4186 31.2782C30.6522 31.5004 28.9841 31.7929 27.388 32.131ZM43.4613 21.7788C43.0441 22.1441 42.6269 22.5341 42.2097 22.9242C43.9057 24.7451 45.4719 26.6827 46.8966 28.7229C49.3898 28.9467 51.8651 29.3377 54.3059 29.893C54.4042 29.5278 54.4777 29.1617 54.5512 28.7964C55.7038 23.1935 54.9932 18.9046 53.1277 17.8336C52.7134 17.6194 52.2511 17.5148 51.785 17.5299C49.7804 17.5291 46.7048 18.9822 43.4613 21.7788ZM27.7564 17.9039C26.014 18.9022 25.3274 22.8986 26.3577 28.161C26.48 28.7205 26.6039 29.28 26.7501 29.8659C29.1944 29.3313 31.6694 28.949 34.161 28.7213C35.5908 26.6784 37.1652 24.7405 38.8719 22.9226C38.6018 22.654 38.3076 22.411 38.0375 22.1665C34.619 19.158 31.3396 17.5699 29.1951 17.5699C28.6946 17.5536 28.1986 17.6688 27.7564 17.9039V17.9039ZM43.8042 28.5263C42.7902 27.1592 41.7007 25.8498 40.5408 24.6042C39.437 25.7976 38.3324 27.114 37.2526 28.5263C38.3324 28.4775 39.4106 28.4535 40.516 28.4535C41.6214 28.4535 42.7244 28.4791 43.8042 28.5271V28.5263ZM35.6061 39.7353C35.5993 38.7537 35.8841 37.7923 36.4245 36.9729C36.9648 36.1534 37.7364 35.5129 38.6413 35.1326C39.5461 34.7522 40.5436 34.6492 41.5071 34.8365C42.4706 35.0238 43.3568 35.493 44.0533 36.1847C44.7498 36.8763 45.2252 37.7592 45.4192 38.7214C45.6132 39.6836 45.5171 40.6818 45.143 41.5893C44.769 42.4968 44.1339 43.2728 43.3182 43.8188C42.5026 44.3649 41.5431 44.6564 40.5616 44.6564C39.9126 44.6603 39.2693 44.5359 38.6685 44.2904C38.0678 44.0449 37.5215 43.6831 37.061 43.2258C36.6005 42.7685 36.2349 42.2247 35.9852 41.6257C35.7356 41.0267 35.6067 40.3843 35.6061 39.7353V39.7353Z" fill="#E6E6E6"/>
</g>
<defs>
<clipPath id="clip0">
<rect width="80.0232" height="80" fill="white"/>
</clipPath>
</defs>
</svg>
